<?xml version="1.0" encoding="utf-8"?>
<!-- Generator: Adobe Illustrator 23.0.1, SVG Export Plug-In . SVG Version: 6.00 Build 0)  -->
<svg version="1.1" id="Layer_1" width="107px" height="65px" xmlns="http://www.w3.org/2000/svg" xmlns:xlink="http://www.w3.org/1999/xlink" x="0px" y="0px"
	 viewBox="0 0 107 65" style="enable-background:new 0 0 107 65;" xml:space="preserve">
<style type="text/css">
	.st0{fill:#363636;}
</style>
<g>
	<path class="st0" d="M99,4.1c0.8,1.4,1.2,3.1,1.2,4.8V30c0,4.6-3.1,8.5-7.2,9.9c-1.3,4-3.8,7.9-8.1,10.4
		c-8.7,5.2-31.1,4.8-31.2,4.8c-0.1,0-22.5,0.4-31.2-4.8c-4.2-2.5-6.7-6.3-8-10.3C10,38.8,6.7,34.8,6.7,30V8.9c0-1.7,0.4-3.3,1.1-4.7
		C4.2,5.1,0,6.9,0,10.4c0,6.2,0,25.7,0,30c0,10.3,11.8,24.4,53.7,24.4c41.8,0,53.7-14.2,53.7-24.4c0-4.3,0-23.7,0-30
		C107.3,6.8,102.7,4.9,99,4.1z"/>
	<path class="st0" d="M20.6,38.5h65.5c5.6,0,10.1-4.5,10.1-10.1V9.9c0-5.6-4.5-10.1-10.1-10.1H20.6C15-0.1,10.5,4.4,10.5,9.9v18.4
		C10.5,33.9,15,38.5,20.6,38.5z M83.7,9.5c0.9,0,1.6,0.7,1.6,1.6c0,0.9-0.7,1.6-1.6,1.6s-1.6-0.7-1.6-1.6
		C82.1,10.2,82.8,9.5,83.7,9.5z M83.7,13.5c0.9,0,1.6,0.7,1.6,1.6c0,0.9-0.7,1.6-1.6,1.6s-1.6-0.7-1.6-1.6
		C82.1,14.2,82.8,13.5,83.7,13.5z M83.7,17.5c0.9,0,1.6,0.7,1.6,1.6c0,0.9-0.7,1.6-1.6,1.6s-1.6-0.7-1.6-1.6
		C82.1,18.2,82.8,17.5,83.7,17.5z M83.7,21.4c0.9,0,1.6,0.7,1.6,1.6c0,0.9-0.7,1.6-1.6,1.6s-1.6-0.7-1.6-1.6
		C82.1,22.1,82.8,21.4,83.7,21.4z M83.7,25.4c0.9,0,1.6,0.7,1.6,1.6c0,0.9-0.7,1.6-1.6,1.6s-1.6-0.7-1.6-1.6
		C82.1,26.1,82.8,25.4,83.7,25.4z M79.7,9.5c0.9,0,1.6,0.7,1.6,1.6c0,0.9-0.7,1.6-1.6,1.6c-0.9,0-1.6-0.7-1.6-1.6
		C78.1,10.2,78.8,9.5,79.7,9.5z M79.7,25.4c0.9,0,1.6,0.7,1.6,1.6c0,0.9-0.7,1.6-1.6,1.6c-0.9,0-1.6-0.7-1.6-1.6
		C78.1,26.1,78.8,25.4,79.7,25.4z M75.6,9.5c0.9,0,1.6,0.7,1.6,1.6c0,0.9-0.7,1.6-1.6,1.6c-0.9,0-1.6-0.7-1.6-1.6
		C74.1,10.2,74.8,9.5,75.6,9.5z M75.6,13.5c0.9,0,1.6,0.7,1.6,1.6c0,0.9-0.7,1.6-1.6,1.6c-0.9,0-1.6-0.7-1.6-1.6
		C74.1,14.2,74.8,13.5,75.6,13.5z M75.6,17.5c0.9,0,1.6,0.7,1.6,1.6c0,0.9-0.7,1.6-1.6,1.6c-0.9,0-1.6-0.7-1.6-1.6
		C74.1,18.2,74.8,17.5,75.6,17.5z M75.6,21.4c0.9,0,1.6,0.7,1.6,1.6c0,0.9-0.7,1.6-1.6,1.6c-0.9,0-1.6-0.7-1.6-1.6
		C74.1,22.1,74.8,21.4,75.6,21.4z M75.6,25.4c0.9,0,1.6,0.7,1.6,1.6c0,0.9-0.7,1.6-1.6,1.6c-0.9,0-1.6-0.7-1.6-1.6
		C74.1,26.1,74.8,25.4,75.6,25.4z M68,9.5c0.9,0,1.6,0.7,1.6,1.6c0,0.9-0.7,1.6-1.6,1.6s-1.6-0.7-1.6-1.6C66.4,10.2,67.1,9.5,68,9.5
		z M68,17.5c0.9,0,1.6,0.7,1.6,1.6c0,0.9-0.7,1.6-1.6,1.6s-1.6-0.7-1.6-1.6C66.4,18.2,67.1,17.5,68,17.5z M68,21.4
		c0.9,0,1.6,0.7,1.6,1.6c0,0.9-0.7,1.6-1.6,1.6s-1.6-0.7-1.6-1.6C66.4,22.1,67.1,21.4,68,21.4z M68,25.4c0.9,0,1.6,0.7,1.6,1.6
		c0,0.9-0.7,1.6-1.6,1.6s-1.6-0.7-1.6-1.6C66.4,26.1,67.1,25.4,68,25.4z M63.9,9.5c0.9,0,1.6,0.7,1.6,1.6c0,0.9-0.7,1.6-1.6,1.6
		c-0.9,0-1.6-0.7-1.6-1.6C62.4,10.2,63.1,9.5,63.9,9.5z M63.9,17.5c0.9,0,1.6,0.7,1.6,1.6c0,0.9-0.7,1.6-1.6,1.6
		c-0.9,0-1.6-0.7-1.6-1.6C62.4,18.2,63.1,17.5,63.9,17.5z M63.9,25.4c0.9,0,1.6,0.7,1.6,1.6c0,0.9-0.7,1.6-1.6,1.6
		c-0.9,0-1.6-0.7-1.6-1.6C62.4,26.1,63.1,25.4,63.9,25.4z M59.9,9.5c0.9,0,1.6,0.7,1.6,1.6c0,0.9-0.7,1.6-1.6,1.6
		c-0.9,0-1.6-0.7-1.6-1.6C58.3,10.2,59,9.5,59.9,9.5z M59.9,13.5c0.9,0,1.6,0.7,1.6,1.6c0,0.9-0.7,1.6-1.6,1.6
		c-0.9,0-1.6-0.7-1.6-1.6C58.3,14.2,59,13.5,59.9,13.5z M59.9,17.5c0.9,0,1.6,0.7,1.6,1.6c0,0.9-0.7,1.6-1.6,1.6
		c-0.9,0-1.6-0.7-1.6-1.6C58.3,18.2,59,17.5,59.9,17.5z M59.9,25.4c0.9,0,1.6,0.7,1.6,1.6c0,0.9-0.7,1.6-1.6,1.6
		c-0.9,0-1.6-0.7-1.6-1.6C58.3,26.1,59,25.4,59.9,25.4z M51.6,9.5c0.9,0,1.6,0.7,1.6,1.6c0,0.9-0.7,1.6-1.6,1.6S50,11.9,50,11
		C50,10.2,50.7,9.5,51.6,9.5z M51.6,13.5c0.9,0,1.6,0.7,1.6,1.6c0,0.9-0.7,1.6-1.6,1.6S50,15.9,50,15.1C50,14.2,50.7,13.5,51.6,13.5
		z M51.6,17.5c0.9,0,1.6,0.7,1.6,1.6c0,0.9-0.7,1.6-1.6,1.6S50,20,50,19.1C50,18.2,50.7,17.5,51.6,17.5z M51.6,21.4
		c0.9,0,1.6,0.7,1.6,1.6c0,0.9-0.7,1.6-1.6,1.6S50,23.9,50,23C50,22.1,50.7,21.4,51.6,21.4z M51.6,25.4c0.9,0,1.6,0.7,1.6,1.6
		c0,0.9-0.7,1.6-1.6,1.6S50,27.8,50,27C50,26.1,50.7,25.4,51.6,25.4z M47.6,13.5c0.9,0,1.6,0.7,1.6,1.6c0,0.9-0.7,1.6-1.6,1.6
		S46,15.9,46,15.1C46,14.2,46.7,13.5,47.6,13.5z M39.1,13.3c0.9,0,1.6,0.7,1.6,1.6c0,0.9-0.7,1.6-1.6,1.6c-0.9,0-1.6-0.7-1.6-1.6
		C37.5,14,38.2,13.3,39.1,13.3z M39.1,17.3c0.9,0,1.6,0.7,1.6,1.6c0,0.9-0.7,1.6-1.6,1.6c-0.9,0-1.6-0.7-1.6-1.6
		C37.5,18,38.2,17.3,39.1,17.3z M35,9.3c0.9,0,1.6,0.7,1.6,1.6c0,0.9-0.7,1.6-1.6,1.6c-0.9,0-1.6-0.7-1.6-1.6
		C33.4,10,34.2,9.3,35,9.3z M35,13.3c0.9,0,1.6,0.7,1.6,1.6c0,0.9-0.7,1.6-1.6,1.6c-0.9,0-1.6-0.7-1.6-1.6
		C33.4,14,34.2,13.3,35,13.3z M35,17.3c0.9,0,1.6,0.7,1.6,1.6c0,0.9-0.7,1.6-1.6,1.6c-0.9,0-1.6-0.7-1.6-1.6
		C33.4,18,34.2,17.3,35,17.3z M35,21.4c0.9,0,1.6,0.7,1.6,1.6c0,0.9-0.7,1.6-1.6,1.6c-0.9,0-1.6-0.7-1.6-1.6
		C33.4,22.1,34.2,21.4,35,21.4z M30.8,13.3c0.9,0,1.6,0.7,1.6,1.6c0,0.9-0.7,1.6-1.6,1.6s-1.6-0.7-1.6-1.6
		C29.2,14,29.9,13.3,30.8,13.3z M30.8,17.3c0.9,0,1.6,0.7,1.6,1.6c0,0.9-0.7,1.6-1.6,1.6s-1.6-0.7-1.6-1.6
		C29.2,18,29.9,17.3,30.8,17.3z M30.8,21.4c0.9,0,1.6,0.7,1.6,1.6c0,0.9-0.7,1.6-1.6,1.6s-1.6-0.7-1.6-1.6
		C29.2,22.1,29.9,21.4,30.8,21.4z M30.8,25.4c0.9,0,1.6,0.7,1.6,1.6c0,0.9-0.7,1.6-1.6,1.6s-1.6-0.7-1.6-1.6
		C29.2,26.1,29.9,25.4,30.8,25.4z M26.3,9.3c0.9,0,1.6,0.7,1.6,1.6c0,0.9-0.7,1.6-1.6,1.6c-0.9,0-1.6-0.7-1.6-1.6
		C24.7,10,25.4,9.3,26.3,9.3z M26.3,13.3c0.9,0,1.6,0.7,1.6,1.6c0,0.9-0.7,1.6-1.6,1.6c-0.9,0-1.6-0.7-1.6-1.6
		C24.7,14,25.4,13.3,26.3,13.3z M26.3,17.3c0.9,0,1.6,0.7,1.6,1.6c0,0.9-0.7,1.6-1.6,1.6c-0.9,0-1.6-0.7-1.6-1.6
		C24.7,18,25.4,17.3,26.3,17.3z M26.3,21.4c0.9,0,1.6,0.7,1.6,1.6c0,0.9-0.7,1.6-1.6,1.6c-0.9,0-1.6-0.7-1.6-1.6
		C24.7,22.1,25.4,21.4,26.3,21.4z M22.3,13.3c0.9,0,1.6,0.7,1.6,1.6c0,0.9-0.7,1.6-1.6,1.6c-0.9,0-1.6-0.7-1.6-1.6
		C20.7,14,21.4,13.3,22.3,13.3z M22.3,17.3c0.9,0,1.6,0.7,1.6,1.6c0,0.9-0.7,1.6-1.6,1.6c-0.9,0-1.6-0.7-1.6-1.6
		C20.7,18,21.4,17.3,22.3,17.3z"/>
</g>
</svg>
