<?xml version="1.0" encoding="utf-8"?>
<!-- Generator: Adobe Illustrator 23.0.1, SVG Export Plug-In . SVG Version: 6.00 Build 0)  -->
<svg version="1.1" id="Layer_1"  width="56px" height="98px" xmlns="http://www.w3.org/2000/svg" xmlns:xlink="http://www.w3.org/1999/xlink" x="0px" y="0px"
	 viewBox="0 0 56 98" style="enable-background:new 0 0 56 98;" xml:space="preserve">
<style type="text/css">
	.st0{fill:#363636;}
</style>
<g>
	<path class="st0" d="M54.5,32.2H53v-4.6c0-5.1-4.1-9.2-9.1-9.2H9.1c-5,0-9.1,4.1-9.1,9.2v42.9c0,5.1,4.1,9.2,9.1,9.2h34.8
		c5,0,9.1-4.1,9.1-9.2V67h1.5c0.4,0,0.8-0.3,0.8-0.8V52.5c0-0.4-0.3-0.8-0.8-0.8H53v-8.8h1.5c0.8,0,1.5-0.7,1.5-1.5v-7.7
		C56,32.9,55.3,32.2,54.5,32.2z M34.1,29.1c2.9,0,5.3,2.4,5.3,5.4s-2.4,5.4-5.3,5.4s-5.3-2.4-5.3-5.4S31.2,29.1,34.1,29.1z
		 M18.9,29.1c2.9,0,5.3,2.4,5.3,5.4s-2.4,5.4-5.3,5.4c-2.9,0-5.3-2.4-5.3-5.4S16,29.1,18.9,29.1z M5.3,49.4c0-3,2.4-5.4,5.3-5.4
		c2.9,0,5.3,2.4,5.3,5.4c0,3-2.4,5.4-5.3,5.4C7.7,54.8,5.3,52.4,5.3,49.4z M18.9,68.9c-2.9,0-5.3-2.4-5.3-5.4s2.4-5.4,5.3-5.4
		c2.9,0,5.3,2.4,5.3,5.4C24.2,66.5,21.9,68.9,18.9,68.9z M20.4,49c0-3.4,2.7-6.1,6.1-6.1s6.1,2.7,6.1,6.1s-2.7,6.1-6.1,6.1
		C23.1,55.1,20.4,52.4,20.4,49z M34.1,68.9c-2.9,0-5.3-2.4-5.3-5.4s2.4-5.4,5.3-5.4s5.3,2.4,5.3,5.4C39.4,66.5,37,68.9,34.1,68.9z
		 M42.4,54.8c-2.9,0-5.3-2.4-5.3-5.4s2.4-5.4,5.3-5.4c2.9,0,5.3,2.4,5.3,5.4C47.7,52.4,45.3,54.8,42.4,54.8z"/>
	<path class="st0" d="M9.6,15.3h33.7c0.8,0,1.4-0.7,1.3-1.5L43,3c0,0,0,0,0,0c-0.3-1.7-1.8-3-3.5-3h-26c-1.7,0-3.3,1.4-3.5,3
		L8.3,13.8C8.2,14.6,8.8,15.3,9.6,15.3z"/>
	<path class="st0" d="M43.3,82.7H9.6c-0.8,0-1.4,0.7-1.3,1.5L10,95c0.3,1.7,1.8,3,3.5,3h26c1.7,0,3.3-1.4,3.5-3c0,0,0,0,0,0
		l1.6-10.8C44.8,83.4,44.2,82.7,43.3,82.7z"/>
</g>
</svg>
