<?xml version="1.0" encoding="utf-8"?>
<!-- Generator: Adobe Illustrator 23.0.1, SVG Export Plug-In . SVG Version: 6.00 Build 0)  -->
<svg version="1.1" id="Layer_1" width="132px" height="69px" xmlns="http://www.w3.org/2000/svg" xmlns:xlink="http://www.w3.org/1999/xlink" x="0px" y="0px"
	 viewBox="0 0 132 69" style="enable-background:new 0 0 132 69;" xml:space="preserve">
<style type="text/css">
	.st0{fill:#363636;}
</style>
<g transform="translate(0.000000,512.000000) scale(0.100000,-0.100000)">
	<path class="st0" d="M120.5,5117.4c-55.4-4.9-102.1-15.9-114.8-26.7c-7.2-6.2-7.2-6.2-2.3-11.6c6.4-7.2,37.1-16.5,72.5-22.4
		c40-6.7,125.1-6.9,137.2-0.5c12.1,6.7,16.2,14.1,16.2,29.8c0,16.2-6.2,24.2-22.2,28.5C192.7,5118.5,149.4,5120,120.5,5117.4z"/>
	<path class="st0" d="M257.7,5115.1c-1.3-2.8-2.6-21.1-2.6-41.1c0-40.6,1.6-37.8-21.9-39.3l-10.3-0.8l-1.3-25.4l-1.3-25.4l-11.9-2.8
		c-25.8-6.7-40-26-37.9-52.9c1.3-19.3,10.3-33.4,25.8-40.9c11.1-5.1,14.7-5.4,112.5-5.4c55.4,0,101.4-0.8,101.9-1.8
		c0.5-1.3-11.1-94.1-25.8-206.4c-14.4-112.3-26.8-210-27.1-216.7c-0.5-16.2,8.3-26.2,23.5-26.2c12.4,0,20.1,6.4,23.2,19
		c1.3,5.1,15,103.3,30.2,218.2c15.2,114.6,28.6,208.7,29.4,208.7c1,0,10.8-14.1,21.9-31.4c29.4-46.3,24-43.2,76.4-43.2H606v-28V4745
		l-51.3-0.8c-47.2-0.8-52.1-1.3-58.8-6.2c-15.7-11.6-16.3-14.1-16.3-109.8c0-95.3,0.3-97.9,15.2-110.5l8.5-7h156.8H817l8.5,7
		c15,12.6,15.2,15.2,15.2,110.5c0,95.6-0.5,98.2-16.2,109.8c-6.7,4.9-11.6,5.4-58.8,6.2l-51.3,0.8v28.3v28h43.6
		c52.3,0,46.9-3.1,76.3,43.2c11.1,17.2,20.9,31.4,21.9,31.4c0.8,0,14.2-94.1,29.4-208.7c15.2-114.9,28.9-213.1,30.2-218.2
		c3.1-12.6,10.8-19,23.2-19c15.2,0,24,10,23.5,26.2c-0.3,6.7-12.6,104.4-27.1,216.7c-14.7,112.3-26.3,205.1-25.8,206.4
		c0.5,1,46.4,1.8,101.9,1.8c97.8,0,101.4,0.2,112.4,5.4c15.5,7.5,24.5,21.6,25.8,40.9c2.1,27-12.1,46.3-37.9,52.9l-11.9,2.8
		l-1.3,25.4l-1.3,25.4l-10.3,0.8c-23.5,1.5-21.9-1.3-21.9,39.3c0,20-1.3,38.3-2.6,41.1c-2.1,3.6-5.4,4.9-13.7,4.9
		c-6.2,0-12.4-1.3-14.2-3.1c-2.1-2.1-3.1-14.7-3.1-39.3c0-24.7-1-37.3-3.1-39.3c-1.8-1.8-9-3.1-16.5-3.1c-16.3,0-16.5-0.5-16.5-31.1
		v-22.9H660.1H324.8v22.9c0,30.6-0.2,31.1-16.5,31.1c-7.5,0-14.7,1.3-16.5,3.1c-2.1,2.1-3.1,14.6-3.1,39.3c0,24.7-1,37.3-3.1,39.3
		c-1.8,1.8-8,3.1-14.2,3.1C263.2,5120,259.8,5118.7,257.7,5115.1z M686.2,4713.9c28.9-9,53.9-33.9,61.7-61.7
		c4.4-15.4,3.1-42.2-2.8-57.8c-7-18.8-26.8-40.1-45.7-49.4c-12.9-6.4-17.5-7.2-39.2-7.2c-21.7,0-26.3,0.8-39.2,7.2
		c-18.8,9.3-38.7,30.6-45.7,49.4c-5.9,15.7-7.2,42.4-2.8,57.8c7.5,27.2,32.5,52.7,60.6,61.7C653.2,4720.3,666,4720.3,686.2,4713.9z"
		/>
	<path class="st0" d="M637.9,4675.6c-20.4-9.3-35.1-36.5-30.7-57.3c7.7-36.8,48.2-55.5,80-37c19.9,11.6,29.9,35.5,24.5,57.8
		c-5.7,23.9-27.3,41.4-51.6,41.4C653.7,4680.5,643.9,4678.2,637.9,4675.6z"/>
	<path class="st0" d="M360.9,5118.5c-39.2-6.7-45.1-11.3-45.1-34.4c0-18.2,4.6-24.2,22.7-29.6c15.5-4.6,71.7-5.1,105-1.3
		c68.6,8.2,113.2,25.4,97,37.5c-12.7,9-49,18.8-90.5,23.9C425.2,5117.7,370,5120,360.9,5118.5z"/>
	<path class="st0" d="M894.8,5117.4c-63.2-5.9-118.6-20.8-118.6-31.9c0-17.2,78.4-34.7,156.3-35c58,0,72,6.4,72,33.4
		c0,18.2-6.2,26.2-23.7,30.8C964.2,5119,924,5120,894.8,5117.4z"/>
	<path class="st0" d="M1127.8,5117.2c-17.8-2.3-30.2-7.7-34.3-14.9c-3.9-7.7-3.1-29,1.5-35.7c9.3-13.1,16.5-14.7,70.7-14.7
		c36.6,0,58,1.3,78.7,4.9c35.3,5.9,66,15.2,72.5,22.4c4.9,5.4,4.9,5.4-2.3,11.6c-13.4,11.3-59.6,21.9-119.2,26.7
		C1160.5,5120.3,1150.5,5120.3,1127.8,5117.2z"/>
</g>
</svg>
