<?xml version="1.0" encoding="utf-8"?>
<!-- Generator: Adobe Illustrator 23.0.1, SVG Export Plug-In . SVG Version: 6.00 Build 0)  -->
<svg version="1.1" id="Layer_1" xmlns="http://www.w3.org/2000/svg" xmlns:xlink="http://www.w3.org/1999/xlink" x="0px" y="0px"
	 viewBox="0 0 55 55" style="enable-background:new 0 0 55 55;" xml:space="preserve">
<style type="text/css">
	.st0{fill:#111111;}
	.st1{fill:#F0C52E;}
</style>
<path id="XMLID_1_" class="st0" d="M27.5,0C12.3,0,0,12.3,0,27.5S12.3,55,27.5,55S55,42.7,55,27.5S42.7,0,27.5,0z M37.5,38.5
	l-10-9.6l-10,9.6L16,37.1l10-9.6l-10-9.6l1.5-1.4l10,9.6l10-9.6l1.5,1.4l-10,9.6l10,9.6L37.5,38.5z"/>
<polygon class="st1" points="39,37.1 37.5,38.5 27.5,28.9 17.5,38.5 16,37.1 26,27.5 16,17.9 17.5,16.5 27.5,26.1 37.5,16.5 
	39,17.9 29,27.5 "/>
</svg>
